<?xml version="1.0" encoding="utf-8"?>
<!-- Generator: Adobe Illustrator 25.4.1, SVG Export Plug-In . SVG Version: 6.00 Build 0)  -->
<svg version="1.1" id="white_2" xmlns="http://www.w3.org/2000/svg" xmlns:xlink="http://www.w3.org/1999/xlink" x="0px" y="0px"
	 viewBox="0 0 119.129921 116.6813431" style="enable-background:new 0 0 119.129921 116.6813431;" xml:space="preserve">
<style type="text/css">
	.st0{fill:#243F1E;}
	.st1{fill:#FFFFFF;}
</style>
<g>
	<g>
		<path class="st1" d="M119.129921,59.573307c0,26.9329872-17.865387,49.678318-42.4006119,57.0405312l-5.0826645-20.8709183
			h3.1409531c1.029808,0,1.8740997-0.8442917,1.8740997-1.8744049v-3.2758636c0-1.030014-0.8442917-1.8743057-1.8740997-1.8743057
			H63.5751495c-0.0676117-8.9832993,0.8442917-19.1148224,4.3904953-26.0886993h-0.0169067l6.6867371-14.1840706
			c0,0-1.6547775,7.5648384-1.8407059,10.0977173c-0.7935867,10.9927254-0.2700272,10.2666435-0.2700272,10.2666435
			s5.0488586,0,9.4393539-3.6474075c13.5927963-11.3134537,10.4184494-38.905014,10.4184494-38.905014
			s-22.2047577,3.3771744-31.947937,17.3755283c-6.0114708,8.6455574-0.2869301,20.3475571-0.2869301,20.3475571h0.0164909
			c-1.7050781,4.8799438-2.6004906,10.4185562-3.0053215,15.9402695c-2.9888344-3.8331223-5.927372-7.311615-6.6702499-8.1728058
			c0.1183167-3.427887-0.3883438-9.7937889-5.1498642-13.6100121c-10.9420128-8.7975769-29.2464466-6.3153-29.2464466-6.3153
			s3.6133957,22.1711617,17.6287518,27.4057426c4.2383728,1.5872726,7.9869881,0.2195206,7.9869881,0.2195206
			s-0.9457092-3.883728-2.6342964-6.2308884c-2.076931-2.9212265-6.7877426-8.2234116-6.7877426-8.2234116
			s5.268177,3.1238403,6.8046455,4.4578934c1.8407059,1.6209793,5.4710045,5.6736298,6.1635895,6.4504166l-0.0169029,0.0167999
			c2.0600281,2.3978653,6.973671,8.3416214,10.0639153,12.7995224H44.5785408c-1.029808,0-1.8740997,0.8442917-1.8740997,1.8743057
			v3.2758636c0,1.0301132,0.8442917,1.8744049,1.8740997,1.8744049h3.157856l-5.0995674,20.9384232
			C17.9832897,109.3866348,0,86.5907059,0,59.573307C0,26.6627579,26.6797619,0,59.57341,0
			S119.129921,26.6627579,119.129921,59.573307z"/>
	</g>
</g>
</svg>
