<?xml version="1.0" encoding="UTF-8" standalone="no"?>
<svg
   xmlns:dc="http://purl.org/dc/elements/1.1/"
   xmlns:cc="http://creativecommons.org/ns#"
   xmlns:rdf="http://www.w3.org/1999/02/22-rdf-syntax-ns#"
   xmlns:svg="http://www.w3.org/2000/svg"
   xmlns="http://www.w3.org/2000/svg"
   xmlns:sodipodi="http://sodipodi.sourceforge.net/DTD/sodipodi-0.dtd"
   xmlns:inkscape="http://www.inkscape.org/namespaces/inkscape"
   style="isolation:isolate"
   viewBox="0 0 582.72425 564.10995"
   width="582.72424pt"
   height="564.10999pt"
   version="1.1"
   id="svg901"
   sodipodi:docname="openchia.svg"
   inkscape:version="1.0.2 (e86c870879, 2021-01-15)">
  <metadata
     id="metadata905">
    <rdf:RDF>
      <cc:Work
         rdf:about="">
        <dc:format>image/svg+xml</dc:format>
        <dc:type
           rdf:resource="http://purl.org/dc/dcmitype/StillImage" />
        <dc:title></dc:title>
      </cc:Work>
    </rdf:RDF>
  </metadata>
  <sodipodi:namedview
     pagecolor="#ffffff"
     bordercolor="#666666"
     borderopacity="1"
     objecttolerance="10"
     gridtolerance="10"
     guidetolerance="10"
     inkscape:pageopacity="0"
     inkscape:pageshadow="2"
     inkscape:window-width="2560"
     inkscape:window-height="1016"
     id="namedview903"
     showgrid="false"
     fit-margin-top="0"
     fit-margin-left="0"
     fit-margin-right="0"
     fit-margin-bottom="0"
     inkscape:zoom="0.58796304"
     inkscape:cx="369.49883"
     inkscape:cy="661.11271"
     inkscape:window-x="0"
     inkscape:window-y="0"
     inkscape:window-maximized="1"
     inkscape:current-layer="svg901" />
  <defs
     id="defs891">
    <clipPath
       id="_clipPath_1GgyPgiTTggg3ajs2bYEublvfI5KWfPM">
      <rect
         width="744.09399"
         height="1052.3621"
         id="rect888"
         x="0"
         y="0" />
    </clipPath>
  </defs>
  <g
     clip-path="url(#_clipPath_1GgyPgiTTggg3ajs2bYEublvfI5KWfPM)"
     id="g899"
     transform="translate(-94.922872,-30.3465)">
    <g
       id="g895">
      <path
         d="M 286.064,582.803 C 160.204,534.495 86.715,403.279 111.28,270.724 135.845,138.169 251.473,42 386.285,42 c 134.812,0 250.44,96.169 275.005,228.724 24.565,132.555 -48.924,263.771 -174.784,312.079 z"
         fill="#3fa652"
         vector-effect="non-scaling-stroke"
         stroke-width="23.307"
         stroke="#21552a"
         stroke-linejoin="round"
         stroke-linecap="butt"
         stroke-miterlimit="4"
         id="path893" />
    </g>
    <path
       d="m 436.3,577.029 c -2.525,3.691 -6.216,6.605 -10.296,8.159 -3.69,1.554 -7.576,1.942 -11.461,2.331 -2.136,0.194 -4.079,-0.777 -5.439,-2.331 -4.467,-5.439 -8.935,-11.073 -12.626,-17.094 -4.079,-6.605 -7.382,-13.598 -10.684,-20.591 -3.108,-6.411 -6.605,-12.821 -9.907,-19.231 -10.101,3.108 -18.066,2.525 -25.836,0.388 -12.238,-3.108 -24.281,-9.324 -35.354,-16.706 -19.619,-13.403 -35.937,-30.886 -48.757,-50.894 -13.792,-21.368 -23.699,-45.261 -28.167,-71.097 -5.633,-32.051 -3.108,-67.017 2.72,-95.184 6.41,-29.914 16.511,-52.448 29.72,-74.981 15.541,-26.613 35.354,-53.42 68.766,-86.443 19.231,-19.037 43.124,-40.016 68.377,-55.168 5.051,-3.108 10.295,-5.827 14.375,-7.187 -3.303,7.77 -3.691,14.18 -3.885,20.397 -0.195,10.489 0.582,20.202 1.942,30.303 1.748,13.209 4.857,27.001 9.13,41.959 5.634,19.619 13.404,41.57 22.145,60.412 12.821,27.39 27.584,48.564 38.851,71.291 7.575,15.346 13.792,31.664 16.9,47.398 3.108,15.346 3.496,30.304 1.165,45.455 -2.914,18.648 -10.295,37.491 -20.202,54.78 -15.152,26.224 -36.52,48.563 -72.262,69.736 1.165,5.634 2.525,11.073 4.079,16.123 4.079,11.85 10.878,20.591 16.706,30.692 0.971,1.554 1.748,3.108 2.525,4.662 0.971,1.554 6.758,11.073 6.175,12.821 -0.388,2.72 -7.146,-2.331 -8.7,0 z m -40.599,-86.054 c 2.719,-1.748 3.691,-5.051 2.331,-7.964 -5.245,-12.044 -10.49,-24.282 -14.958,-36.714 -10.295,-28.555 -17.094,-58.665 -20.59,-88.774 -2.526,-21.756 -3.303,-43.512 -3.691,-65.269 -0.389,-24.864 -0.389,-49.923 3.496,-74.205 3.303,-21.562 9.519,-42.541 15.541,-63.715 -4.468,10.879 -8.936,21.757 -12.627,33.024 -7.382,22.921 -11.461,46.815 -14.18,70.902 -2.914,25.836 -4.274,51.671 -4.274,77.507 0,23.504 0.777,47.203 4.079,70.514 2.72,19.814 6.993,39.433 13.404,58.47 3.108,9.324 6.799,18.648 10.49,27.778 0.971,2.331 3.108,3.885 5.439,4.079 1.165,0 2.136,0 3.302,0 3.108,-0.388 6.022,-1.748 8.741,-3.302 1.166,-0.971 2.331,-1.748 3.497,-2.331 z"
       fill="#21552a"
       id="path897" />
  </g>
</svg>
